{"title":"Kill The Irishman 2011 720p BRRip x264 Feel-Free","uid":6369486,"size":2690276205,"categoryP":"video","categoryS":"hd___movies","magnet":"?xt=urn:btih:eee6c2754ce56ed9a5567af19dc0157e6ba6de52&amp;dn=Kill+The+Irishman+2011+720p+BRRip+x264+Feel-Free&amp;tr=udp%3A%2F%2Ftracker.openbittorrent.com%3A80&amp;tr=udp%3A%2F%2Fopen.demonii.com%3A1337&amp;tr=udp%3A%2F%2Ftracker.coppersurfer.tk%3A6969&amp;tr=udp%3A%2F%2Fexodus.desync.com%3A6969","seeders":0,"leechers":0,"uploader":".BONE.","files":9,"time":1304628697,"description":"Genre:Action | Crime\nLanguage:English\n &lt;a href=&quot;\nhttp://www.imdb.com/title/tt1416801/&quot; rel=&quot;nofollow&quot; target=&quot;_NEW&quot;&gt;\nhttp://www.imdb.com/title/tt1416801/&lt;/a&gt;\n\nSource:BluRay\nSubtitles:Romana\n\nFormat : MPEG-4\nFormat profile : Base Media\nCodec ID : isom\nFile size : 2.50 GiB\nDuration : 1h 46mn\nOverall bit rate : 3 359 Kbps\n\nVideo\nFormat profile : &lt;a class=&quot;__cf_email__&quot; href=&quot;/cdn-cgi/l/email-protection&quot; data-cfemail=&quot;5018393738101c647e61&quot;&gt;[email&amp;#160;protected]&lt;/a&gt;&lt;script cf-hash='f9e31' type=&quot;text/javascript&quot;&gt;\n/* &lt;![CDATA[ */!function(){try{var t=&quot;currentScript&quot;in document?document.currentScript:function(){for(var t=document.getElementsByTagName(&quot;script&quot;),e=t.length;e--;)if(t[e].getAttribute(&quot;cf-hash&quot;))return t[e]}();if(t&amp;&amp;t.previousSibling){var e,r,n,i,c=t.previousSibling,a=c.getAttribute(&quot;data-cfemail&quot;);if(a){for(e=&quot;&quot;,r=parseInt(a.substr(0,2),16),n=2;a.length-n;n+=2)i=parseInt(a.substr(n,2),16)^r,e+=String.fromCharCode(i);e=document.createTextNode(e),c.parentNode.replaceChild(e,c)}}}catch(u){}}();/* ]]&gt; */&lt;/script&gt;\nFormat settings, CABAC : Yes\nFormat settings, ReFrames : 3 frames\nCodec ID : avc1\nCodec ID/Info : Advanced Video Coding\nDuration : 1h 46mn\nBit rate mode : Variable\nBit rate : 3 000 Kbps\nMaximum bit rate : 19.5 Mbps\nWidth : 1 280 pixels\nHeight : 720 pixels\nDisplay aspect ratio : 16:9\nFrame rate mode : Constant\nFrame rate : 23.976 fps\nColor space : YUV\nChroma subsampling : 4:2:0\nBit depth : 8 bits\nScan type : Progressive\nBits/(Pixel*Frame) : 0.136\nStream size : 2.17 GiB (87%)\nWriting library : x264\n\nAudio\nID : 2\nFormat : AAC\nFormat/Info : Advanced Audio Codec\nFormat version : Version 4\nFormat profile : LC\nFormat settings, SBR : No\nCodec ID : 40\nDuration : 1h 46mn\nBit rate mode : Variable\nBit rate : 444 Kbps\nMaximum bit rate : 547 Kbps\nChannel(s) : 6 channels\nChannel positions : Front: L C R, Side: L R, LFE\nSampling rate : 48.0 KHz\nStream size : 338 MiB (13%)\n\n\nPlot:\nThe true story of Danny Greene, a tough Irish thug working for mobsters in Cleveland during the 1970's.\n &lt;a href=&quot;\nhttp://shareimage.org/images/agwwm58gzcpe5nli4qnt.png&quot; rel=&quot;nofollow&quot; target=&quot;_NEW&quot;&gt;\nhttp://shareimage.org/images/agwwm58gzcpe5nli4qnt.png&lt;/a&gt;\n &lt;a href=&quot;\nhttp://shareimage.org/images/pt7e4vvnb82ty17bnu.png&quot; rel=&quot;nofollow&quot; target=&quot;_NEW&quot;&gt;\nhttp://shareimage.org/images/pt7e4vvnb82ty17bnu.png&lt;/a&gt;\n &lt;a href=&quot;\nhttp://shareimage.org/images/o44f9y9lmgbuljhbywnn.png&quot; rel=&quot;nofollow&quot; target=&quot;_NEW&quot;&gt;\nhttp://shareimage.org/images/o44f9y9lmgbuljhbywnn.png&lt;/a&gt;\n &lt;a href=&quot;\nhttp://shareimage.org/images/iu66ogcolch82z4sadtr.png&quot; rel=&quot;nofollow&quot; target=&quot;_NEW&quot;&gt;\nhttp://shareimage.org/images/iu66ogcolch82z4sadtr.png&lt;/a&gt;\n","torrent":{"xt":"urn:btih:eee6c2754ce56ed9a5567af19dc0157e6ba6de52","amp;dn":"Kill+The+Irishman+2011+720p+BRRip+x264+Feel-Free","amp;tr":["udp%3A%2F%2Ftracker.openbittorrent.com%3A80","udp%3A%2F%2Fopen.demonii.com%3A1337","udp%3A%2F%2Ftracker.coppersurfer.tk%3A6969","udp%3A%2F%2Fexodus.desync.com%3A6969"],"infoHash":"eee6c2754ce56ed9a5567af19dc0157e6ba6de52","infoHashBuffer":{"type":"Buffer","data":[238,230,194,117,76,229,110,217,165,86,122,241,157,192,21,126,107,166,222,82]},"announce":[],"urlList":[]}}